<?xml version="1.0" encoding="utf-8"?>
<!-- Generator: Adobe Illustrator 27.5.0, SVG Export Plug-In . SVG Version: 6.00 Build 0)  -->
<svg version="1.1" id="Layer_1" xmlns="http://www.w3.org/2000/svg" xmlns:xlink="http://www.w3.org/1999/xlink" x="0px" y="0px"
	 viewBox="0 0 5000 2916" style="enable-background:new 0 0 5000 2916;" xml:space="preserve">
<g>
	<g>
		<defs>
			<rect id="SVGID_1_" width="5000" height="2916"/>
		</defs>
		<clipPath id="SVGID_00000063635737741534471690000017916474411271391872_">
			<use xlink:href="#SVGID_1_"  style="overflow:visible;"/>
		</clipPath>
		
			<linearGradient id="SVGID_00000176022439246643868310000006870405579298002084_" gradientUnits="userSpaceOnUse" x1="-0.2081" y1="2915.6431" x2="5000.208" y2="0.3569">
			<stop  offset="0" style="stop-color:#E9F5E9"/>
			<stop  offset="1" style="stop-color:#99FFFF"/>
		</linearGradient>
		
			<rect style="clip-path:url(#SVGID_00000063635737741534471690000017916474411271391872_);fill:url(#SVGID_00000176022439246643868310000006870405579298002084_);" width="5000" height="2916"/>
	</g>
	<path style="fill:#FFFFFF;" d="M1694.095,344.389c24.532,0,44.422,19.895,44.422,44.442c0,24.542-19.89,44.437-44.422,44.437
		c-19.338,0-35.778-12.353-41.885-29.602H0v-29.674h1652.21C1658.317,356.741,1674.757,344.389,1694.095,344.389 M1585.309,1583.529
		c17.24,6.109,29.592,22.557,29.592,41.9c0,24.542-19.89,44.438-44.426,44.438s-44.422-19.897-44.422-44.438
		c0-19.343,12.349-35.791,29.592-41.9v-314.242H0v-29.674h1570.475h14.834v14.839V1583.529z M1253.089,2201.833
		c17.24,6.108,29.588,22.558,29.588,41.9c0,24.542-19.89,44.437-44.422,44.437c-24.539,0-44.426-19.895-44.426-44.437
		c0-19.342,12.352-35.792,29.592-41.9v-221.5H0v-29.678h1238.255h14.834v14.839V2201.833z M2404.895,1828.311
		c24.536,0,44.422,19.895,44.422,44.437c0,19.343-12.349,35.792-29.588,41.9v491.387v14.836h-14.834H0v-29.675h2390.061v-476.548
		c-17.24-6.108-29.588-22.557-29.588-41.9C2360.473,1848.206,2380.363,1828.311,2404.895,1828.311z M2706.214,1851.496
		c24.536,0,44.426,19.895,44.426,44.437c0,19.343-12.352,35.792-29.592,41.901V2916h-29.667v-978.166
		c-17.24-6.109-29.588-22.558-29.588-41.901C2661.792,1871.391,2681.678,1851.496,2706.214,1851.496z M2514.829,1088.891
		c17.243,6.109,29.592,22.557,29.592,41.896c0,24.542-19.886,44.437-44.422,44.437c-24.536,0-44.426-19.895-44.426-44.437
		c0-19.339,12.352-35.787,29.592-41.896V0h29.664V1088.891z M2929.652,756.557c17.24,6.104,29.588,22.557,29.588,41.895
		c0,24.543-19.886,44.438-44.422,44.438c-24.532,0-44.422-19.895-44.422-44.438c0-19.338,12.349-35.791,29.588-41.895V0h29.667
		V756.557z M3525.183,390.76c19.332,0,35.775,12.354,41.882,29.602H5000v29.675H3567.065c-6.107,17.249-22.551,29.602-41.882,29.602
		c-24.539,0-44.426-19.894-44.426-44.438C3480.757,410.655,3500.644,390.76,3525.183,390.76z M3771.795,1367.125
		c17.24,6.109,29.595,22.557,29.595,41.896c0,24.546-19.89,44.443-44.429,44.443c-24.532,0-44.422-19.897-44.422-44.443
		c0-19.339,12.353-35.786,29.592-41.896v-290.439v-14.84h14.831H5000v29.679H3771.795V1367.125z M3107.354,2603.728
		c17.24,6.109,29.588,22.556,29.588,41.896c0,24.542-19.89,44.437-44.422,44.437c-24.539,0-44.426-19.894-44.426-44.437
		c0-19.34,12.352-35.787,29.592-41.896v-491.387v-14.84h14.834H5000v29.678H3107.354V2603.728z M3239.318,684.453
		c24.532,0,44.422,19.897,44.422,44.438c0,19.342-12.349,35.791-29.592,41.9v986.645H5000v29.679H3239.318h-14.837v-14.84V770.791
		c-17.236-6.109-29.592-22.557-29.592-41.9C3194.889,704.35,3214.779,684.453,3239.318,684.453z M3834.229,2299.767
		c24.532,0,44.419,19.895,44.419,44.438c0,19.338-12.349,35.791-29.585,41.895v206.044H5000v29.675H3834.229h-14.837v-14.84V2386.1
		c-17.24-6.104-29.588-22.557-29.588-41.895C3789.803,2319.662,3809.689,2299.767,3834.229,2299.767z M0,760.427h2119.03h14.834
		v14.84v638.231c17.24,6.108,29.588,22.557,29.588,41.9c0,24.542-19.89,44.437-44.422,44.437c-24.536,0-44.422-19.895-44.422-44.437
		c0-19.343,12.349-35.792,29.588-41.9V790.105H0V760.427z"/>
</g>
</svg>
